<svg width="15" height="12" viewBox="0 0 15 12" fill="none" xmlns="http://www.w3.org/2000/svg">
<path d="M13.5938 0H1.40625C0.62959 0 0 0.671562 0 1.5V10.5C0 11.3284 0.62959 12 1.40625 12H13.5938C14.3704 12 15 11.3284 15 10.5V1.5C15 0.671562 14.3704 0 13.5938 0ZM13.5938 1.5V2.77516C12.9369 3.34575 11.8896 4.233 9.65077 6.10297C9.15738 6.51694 8.18004 7.51147 7.5 7.49988C6.82008 7.51159 5.84241 6.51678 5.34923 6.10297C3.11074 4.23328 2.06323 3.34584 1.40625 2.77516V1.5H13.5938ZM1.40625 10.5V4.69994C2.07756 5.27028 3.02956 6.07063 4.48061 7.28263C5.12095 7.82028 6.24234 9.00719 7.5 8.99997C8.75147 9.00719 9.85866 7.8375 10.5191 7.28288C11.9701 6.07091 12.9224 5.27034 13.5938 4.69997V10.5H1.40625Z" fill="black"/>
</svg>
