<svg width="27" height="39" viewBox="0 0 27 39" fill="none" xmlns="http://www.w3.org/2000/svg">
<g clip-path="url(#clip0)">
<path d="M12.9556 37.6752C11.1111 34.7785 9.54403 32.3601 8.21271 30.3056M12.9556 37.6752C12.9558 37.6755 12.9559 37.6758 12.9561 37.676L12.1126 38.2131L12.9553 37.6747C12.9554 37.6749 12.9555 37.6751 12.9556 37.6752ZM12.9556 37.6752L8.21271 30.3056M8.21271 30.3056C5.83526 26.6366 4.20974 24.1281 3.09951 22.1282C2.24523 20.5893 1.72904 19.4069 1.42054 18.2783C1.11373 17.156 1 16.0418 1 14.625C1 7.02322 6.67028 1 13.5 1C20.3297 1 26 7.02322 26 14.625C26 16.0418 25.8863 17.156 25.5795 18.2783C25.271 19.4069 24.7548 20.5893 23.9005 22.1282C22.7903 24.1281 21.1647 26.6366 18.7873 30.3055C17.456 32.3601 15.8888 34.7785 14.0444 37.6753L8.21271 30.3056ZM13.5 21.7188C17.2328 21.7188 20.125 18.4659 20.125 14.625C20.125 10.7841 17.2328 7.53125 13.5 7.53125C9.76724 7.53125 6.875 10.7841 6.875 14.625C6.875 18.4659 9.76724 21.7188 13.5 21.7188Z" stroke="#FF0000" stroke-width="2"/>
</g>
<defs>
<clipPath id="clip0">
<rect width="27" height="39" fill="white"/>
</clipPath>
</defs>
</svg>
